<svg id="Layer_1" data-name="Layer 1" xmlns="http://www.w3.org/2000/svg" viewBox="0 0 56.69 37.35">
  <title>logo</title>
  <polygon points="28.35 0 0 29.02 56.7 29.02 28.35 0" style="fill: #b3b3b3"/>
  <polygon points="23.93 0 17.01 6.58 30.85 6.58 23.93 0" style="fill: #4472c4"/>
  <line x1="27.76" y1="9.09" x2="33.93" y2="9.09" style="fill: none;stroke: #000;stroke-miterlimit: 10;stroke-width: 1.5px"/>
  <line x1="17.27" y1="14.09" x2="22.35" y2="14.09" style="fill: none;stroke: #000;stroke-miterlimit: 10;stroke-width: 1.5px"/>
  <line x1="19.62" y1="14.16" x2="30.84" y2="25.94" style="fill: none;stroke: #000;stroke-miterlimit: 10;stroke-width: 1.5px"/>
  <line x1="22.49" y1="17.17" x2="34.99" y2="17.17" style="fill: none;stroke: #000;stroke-miterlimit: 10;stroke-width: 1.5px"/>
  <line x1="29.1" y1="29.03" x2="34.99" y2="17.17" style="fill: none;stroke: #000;stroke-miterlimit: 10;stroke-width: 1.5px"/>
  <circle cx="16.17" cy="28.68" r="7.92" style="fill: #fff;stroke: #000;stroke-miterlimit: 10;stroke-width: 1.5px"/>
  <line x1="22.49" y1="17.17" x2="16.17" y2="28.68" style="fill: none;stroke: #000;stroke-miterlimit: 10;stroke-width: 1.5px"/>
  <line x1="16.17" y1="28.68" x2="29.51" y2="28.68" style="fill: none;stroke: #000;stroke-miterlimit: 10;stroke-width: 1.5px"/>
  <circle cx="16.17" cy="28.68" r="0.9" style="stroke: #000;stroke-miterlimit: 10;stroke-width: 1.5px"/>
  <line x1="29.1" y1="28.68" x2="29.1" y2="31.22" style="fill: none;stroke: #000;stroke-miterlimit: 10;stroke-width: 1.5px"/>
  <circle cx="42.4" cy="28.68" r="7.92" style="fill: #fff;stroke: #000;stroke-miterlimit: 10;stroke-width: 1.5px"/>
  <line x1="30.85" y1="9.09" x2="42.4" y2="28.68" style="fill: none;stroke: #000;stroke-miterlimit: 10;stroke-width: 1.5px"/>
  <line x1="34.48" y1="28.68" x2="42.65" y2="28.68" style="fill: none;stroke: #000;stroke-miterlimit: 10;stroke-width: 1.5px"/>
  <circle cx="42.4" cy="28.68" r="0.9" style="stroke: #000;stroke-miterlimit: 10;stroke-width: 1.5px"/>
</svg>
